<svg width="56" height="55" viewBox="0 0 56 55" fill="none" xmlns="http://www.w3.org/2000/svg">
<path d="M11.6667 48.125C10.3833 48.125 9.28433 47.6766 8.36967 46.7798C7.45656 45.8815 7 44.8021 7 43.5417V11.4583C7 10.1979 7.45656 9.11854 8.36967 8.22021C9.28433 7.3234 10.3833 6.875 11.6667 6.875H44.3333C45.6167 6.875 46.7157 7.3234 47.6303 8.22021C48.5434 9.11854 49 10.1979 49 11.4583V43.5417C49 44.8021 48.5434 45.8815 47.6303 46.7798C46.7157 47.6766 45.6167 48.125 44.3333 48.125H11.6667ZM11.6667 43.5417H44.3333V11.4583H11.6667V43.5417ZM14 38.9583H42L33.25 27.5L26.25 36.6667L21 29.7917L14 38.9583ZM11.6667 43.5417V11.4583V43.5417Z" fill="white"/>
</svg>
