<svg width="63" height="54" viewBox="0 0 63 54" fill="none" xmlns="http://www.w3.org/2000/svg">
<path d="M10.5 40.5C9.75625 40.5 9.13325 40.284 8.631 39.852C8.127 39.4215 7.875 38.8875 7.875 38.25C7.875 37.6125 8.127 37.0785 8.631 36.648C9.13325 36.216 9.75625 36 10.5 36H52.5C53.2438 36 53.8667 36.216 54.369 36.648C54.873 37.0785 55.125 37.6125 55.125 38.25C55.125 38.8875 54.873 39.4215 54.369 39.852C53.8667 40.284 53.2438 40.5 52.5 40.5H10.5ZM10.5 29.25C9.75625 29.25 9.13325 29.034 8.631 28.602C8.127 28.1715 7.875 27.6375 7.875 27C7.875 26.3625 8.127 25.8277 8.631 25.3957C9.13325 24.9652 9.75625 24.75 10.5 24.75H52.5C53.2438 24.75 53.8667 24.9652 54.369 25.3957C54.873 25.8277 55.125 26.3625 55.125 27C55.125 27.6375 54.873 28.1715 54.369 28.602C53.8667 29.034 53.2438 29.25 52.5 29.25H10.5ZM10.5 18C9.75625 18 9.13325 17.7847 8.631 17.3542C8.127 16.9222 7.875 16.3875 7.875 15.75C7.875 15.1125 8.127 14.5778 8.631 14.1458C9.13325 13.7153 9.75625 13.5 10.5 13.5H52.5C53.2438 13.5 53.8667 13.7153 54.369 14.1458C54.873 14.5778 55.125 15.1125 55.125 15.75C55.125 16.3875 54.873 16.9222 54.369 17.3542C53.8667 17.7847 53.2438 18 52.5 18H10.5Z" fill="white"/>
</svg>
